<svg width="100" height="100" viewBox="0 0 100 100" fill="none" xmlns="http://www.w3.org/2000/svg">
<circle cx="50" cy="50" r="50" fill="#3B82F6"/>
<g clip-path="url(#clip0_1_27)">
<path d="M72.4688 24.125C67.25 19.7813 60.7813 16.9375 53.625 16.2812V22.5625C59.0313 23.1563 63.9688 25.3125 68.0313 28.5625L72.4688 24.125Z" fill="white"/>
<path d="M47.375 22.5625V16.2812C40.2188 16.9063 33.75 19.7813 28.5312 24.125L32.9688 28.5625C37.0313 25.3125 41.9688 23.1563 47.375 22.5625Z" fill="white"/>
<path d="M28.5625 32.9688L24.125 28.5312C19.7813 33.75 16.9375 40.2188 16.2812 47.375H22.5625C23.1563 41.9688 25.3125 37.0313 28.5625 32.9688Z" fill="white"/>
<path d="M78.4375 47.375H84.7188C84.0625 40.2188 81.2188 33.75 76.875 28.5312L72.4375 32.9688C75.6875 37.0313 77.8438 41.9688 78.4375 47.375Z" fill="white"/>
<path d="M34.875 50.5L45.625 55.375L50.5 66.125L55.375 55.375L66.125 50.5L55.375 45.625L50.5 34.875L45.625 45.625L34.875 50.5Z" fill="white"/>
<path d="M50.5 78.625C40.7812 78.625 32.2188 73.6563 27.1875 66.125H34.875V59.875H16.125V78.625H22.375V70.1875C28.5938 79.0625 38.8438 84.875 50.5 84.875C65.7188 84.875 78.625 74.9688 83.125 61.25L77 59.8438C73.1562 70.75 62.75 78.625 50.5 78.625Z" fill="white"/>
</g>
<defs>
<clipPath id="clip0_1_27">
<rect width="75" height="75" fill="white" transform="translate(13 13)"/>
</clipPath>
</defs>
</svg>
